<?xml version="1.0" ?><svg height="48" id="svg6485" version="1.1" viewBox="0 0 48 48" width="48" xmlns="http://www.w3.org/2000/svg" xmlns:cc="http://creativecommons.org/ns#" xmlns:dc="http://purl.org/dc/elements/1.1/" xmlns:inkscape="http://www.inkscape.org/namespaces/inkscape" xmlns:rdf="http://www.w3.org/1999/02/22-rdf-syntax-ns#" xmlns:sodipodi="http://sodipodi.sourceforge.net/DTD/sodipodi-0.dtd" xmlns:svg="http://www.w3.org/2000/svg"><defs id="defs6487"/><g id="layer1" transform="translate(0,-1004.3622)"><text id="text4366" style="font-style:normal;font-weight:normal;font-size:11.25px;line-height:125%;font-family:Sans;letter-spacing:0px;word-spacing:0px;fill:#000000;fill-opacity:1;stroke:none;stroke-width:1px;stroke-linecap:butt;stroke-linejoin:miter;stroke-opacity:1" x="12" xml:space="preserve" y="1036.3622"><tspan id="tspan4368" x="12" y="1036.3622"/></text><g id="text4981" style="font-style:normal;font-variant:normal;font-weight:normal;font-stretch:normal;font-size:12.37186241px;line-height:125%;font-family:'Roboto Condensed';-inkscape-font-specification:'Roboto Condensed, ';letter-spacing:0px;word-spacing:0px;fill:#000000;fill-opacity:1;stroke:none;stroke-width:1px;stroke-linecap:butt;stroke-linejoin:miter;stroke-opacity:1" transform="scale(1.1477838,0.87124422)"/><g id="g6774"><g id="g5994" transform="translate(693.02794,153.17156)"><path d="m -669.02794,851.19064 c -13.25187,0 -24,10.74825 -24,24 0,13.2519 10.74813,24 24,24 13.25187,0 24,-10.7481 24,-24 0,-13.25175 -10.74813,-24 -24,-24 z m 0,1.5 c 12.42359,0 22.5,10.07655 22.5,22.5 0,12.4236 -10.07641,22.5 -22.5,22.5 -12.42359,0 -22.5,-10.0764 -22.5,-22.5 0,-12.42345 10.07641,-22.5 22.5,-22.5 z" id="path5769" style="color:#000000;font-style:normal;font-variant:normal;font-weight:normal;font-stretch:normal;font-size:medium;line-height:normal;font-family:sans-serif;text-indent:0;text-align:start;text-decoration:none;text-decoration-line:none;text-decoration-style:solid;text-decoration-color:#000000;letter-spacing:normal;word-spacing:normal;text-transform:none;direction:ltr;block-progression:tb;writing-mode:lr-tb;baseline-shift:baseline;text-anchor:start;white-space:normal;clip-rule:nonzero;display:inline;overflow:visible;visibility:visible;opacity:1;isolation:auto;mix-blend-mode:normal;color-interpolation:sRGB;color-interpolation-filters:linearRGB;solid-color:#000000;solid-opacity:1;fill:#7cbe95;fill-opacity:1;fill-rule:nonzero;stroke:none;stroke-width:0.99999994;stroke-linecap:round;stroke-linejoin:round;stroke-miterlimit:4;stroke-dasharray:none;stroke-dashoffset:0;stroke-opacity:1;color-rendering:auto;image-rendering:auto;shape-rendering:auto;text-rendering:auto;enable-background:accumulate"/><path d="m -669.02794,855.44059 c -10.90519,0 -19.75,8.84505 -19.75,19.75005 0,10.90515 8.84481,19.75005 19.75,19.75005 10.90519,0 19.75,-8.8449 19.75,-19.75005 0,-10.905 -8.84481,-19.75005 -19.75,-19.75005 z" id="path5771" style="color:#000000;font-style:normal;font-variant:normal;font-weight:normal;font-stretch:normal;font-size:medium;line-height:normal;font-family:sans-serif;text-indent:0;text-align:start;text-decoration:none;text-decoration-line:none;text-decoration-style:solid;text-decoration-color:#000000;letter-spacing:normal;word-spacing:normal;text-transform:none;direction:ltr;block-progression:tb;writing-mode:lr-tb;baseline-shift:baseline;text-anchor:start;white-space:normal;clip-rule:nonzero;display:inline;overflow:visible;visibility:visible;opacity:1;isolation:auto;mix-blend-mode:normal;color-interpolation:sRGB;color-interpolation-filters:linearRGB;solid-color:#000000;solid-opacity:1;fill:#7cbe95;fill-opacity:1;fill-rule:nonzero;stroke:none;stroke-width:0.99999994;stroke-linecap:round;stroke-linejoin:round;stroke-miterlimit:4;stroke-dasharray:none;stroke-dashoffset:0;stroke-opacity:1;color-rendering:auto;image-rendering:auto;shape-rendering:auto;text-rendering:auto;enable-background:accumulate"/><path d="m -669.02794,855.44059 c -10.90519,0 -19.75,8.84505 -19.75,19.75005 0,5.4579 2.21752,10.39755 5.798,13.9728 l 27.92477,-27.92475 c -3.57517,-3.5805 -8.51487,-5.7981 -13.97277,-5.7981 z" id="path5773" style="color:#000000;clip-rule:nonzero;display:inline;overflow:visible;visibility:visible;opacity:1;isolation:auto;mix-blend-mode:normal;color-interpolation:sRGB;color-interpolation-filters:linearRGB;solid-color:#000000;solid-opacity:1;fill:#57a071;fill-opacity:1;fill-rule:nonzero;stroke:none;stroke-width:1.5;stroke-linecap:butt;stroke-linejoin:miter;stroke-miterlimit:4;stroke-dasharray:none;stroke-dashoffset:0;stroke-opacity:1;color-rendering:auto;image-rendering:auto;shape-rendering:auto;text-rendering:auto;enable-background:accumulate"/></g><g id="g4851" transform="matrix(0.94226056,0,0,0.94226056,0.35770625,59.3195)"><path d="m 17.455078,8.0058594 c -0.1326,2.54e-5 -0.25976,0.052716 -0.353516,0.1464844 L 12.146484,13.117188 C 12.052236,13.211422 11.999506,13.33938 12,13.472656 l 0,14.033203 c 2.8e-5,0.276131 0.223869,0.499972 0.5,0.5 l 1.792969,0 -3.146485,3.146485 c -0.314777,0.314997 -0.0918,0.85334 0.353516,0.853515 l 23,0 c 0.276131,-2.8e-5 0.499972,-0.223869 0.5,-0.5 L 35,8.5058594 c -2.8e-5,-0.2761309 -0.223869,-0.4999724 -0.5,-0.5 -0.1326,2.54e-5 -0.25976,0.052716 -0.353516,0.1464844 L 32,10.298828 32,8.5078125 c -2.8e-5,-0.2761309 -0.223869,-0.4999724 -0.5,-0.5 l -14.044922,0 z M 18,9.0078125 l 13,0 0,2.2910155 -2.707031,2.707031 -7.785157,0 c -0.676161,-0.0096 -0.676161,1.009563 0,1 l 6.785157,0 -2,2 -9.785157,0 c -0.676161,-0.0096 -0.676161,1.009563 0,1 l 8.785157,0 -2,2 -6.785157,0 c -0.676161,-0.0096 -0.676161,1.009563 0,1 l 5.785157,0 -2,2 -3.785157,0 c -0.676161,-0.0096 -0.676161,1.009563 0,1 l 2.785157,0 -3,3 -0.0098,0 -2.283203,0 0,-13 4.464844,0 0.03516,0 c 0.03351,-5.58e-4 0.06688,-0.0045 0.09961,-0.01172 0.232347,-0.04725 0.399567,-0.25118 0.400391,-0.488282 z m -1,0.6640625 0,3.333984 -3.328125,0 z m 17,0.041016 0,21.292968 -21.292969,0 16.103516,-16.103515 c 0.03527,-0.02695 0.0668,-0.05848 0.09375,-0.09375 z m -13.542969,1.292968 c -0.666666,0.03385 -0.615885,1.033854 0.05078,1 l 7.992188,0 c 0.676161,0.0096 0.676161,-1.009563 0,-1 l -7.992188,0 c -0.01692,-8.6e-4 -0.03387,-8.6e-4 -0.05078,0 z M 31.5,15.474609 c -0.1326,2.6e-5 -0.25976,0.05272 -0.353516,0.146485 l -12.53125,12.53125 c -0.314777,0.314997 -0.0918,0.85334 0.353516,0.853515 l 12.53125,0 c 0.276131,-2.8e-5 0.499972,-0.223869 0.5,-0.5 l 0,-12.53125 c -2.8e-5,-0.276131 -0.223869,-0.499972 -0.5,-0.5 z m -0.5,1.707032 0,10.824218 -10.824219,0 z M 15.46875,33 l 0,0.0059 c -0.08393,0.0051 -0.165209,0.03132 -0.236328,0.07617 l -3.955078,1.976563 c -0.36858,0.184275 -0.36858,0.710256 0,0.894531 l 3.974609,1.988281 c 0.0051,0.0034 0.01036,0.0066 0.01563,0.0098 l 0.01172,0 c 0.01212,0.0064 0.0245,0.01223 0.03711,0.01758 l 0.002,0 c 0.04077,0.01593 0.08345,0.02643 0.126953,0.03125 0.0065,1.27e-4 0.01302,1.27e-4 0.01953,0 l 0.0039,0 c 0.01041,3.26e-4 0.02084,3.26e-4 0.03125,0 l 16,0 c 0.01041,3.26e-4 0.02084,3.26e-4 0.03125,0 L 34,38 c 1.099358,0 2,-0.9006 2,-2 l 0,-1 c 0,-1.0993 -0.900642,-2 -2,-2 l -2.5,0 c -0.01692,-8.6e-4 -0.03386,-8.6e-4 -0.05078,0 L 15.5,33 c -0.01041,-3.26e-4 -0.02084,-3.26e-4 -0.03125,0 z M 16,34.005859 l 15,0 0,1 -15,0 z m 16,0 2,0 c 0.562662,0 1,0.4374 1,1 l 0,1 c 0,0.5627 -0.437338,1 -1,1 l -2,0 z m -17,0.308594 0,2.382813 -2.382812,-1.191407 z m 1,1.691406 15,0 0,1 -15,0 z" id="rect4798" style="color:#000000;font-style:normal;font-variant:normal;font-weight:normal;font-stretch:normal;font-size:medium;line-height:normal;font-family:sans-serif;text-indent:0;text-align:start;text-decoration:none;text-decoration-line:none;text-decoration-style:solid;text-decoration-color:#000000;letter-spacing:normal;word-spacing:normal;text-transform:none;direction:ltr;block-progression:tb;writing-mode:lr-tb;baseline-shift:baseline;text-anchor:start;white-space:normal;clip-rule:nonzero;display:inline;overflow:visible;visibility:visible;opacity:1;isolation:auto;mix-blend-mode:normal;color-interpolation:sRGB;color-interpolation-filters:linearRGB;solid-color:#000000;solid-opacity:1;fill:#ffffff;fill-opacity:1;fill-rule:nonzero;stroke:none;stroke-width:1;stroke-linecap:butt;stroke-linejoin:round;stroke-miterlimit:4;stroke-dasharray:none;stroke-dashoffset:0;stroke-opacity:1;color-rendering:auto;image-rendering:auto;shape-rendering:auto;text-rendering:auto;enable-background:accumulate" transform="translate(0,1004.3622)"/></g></g></g></svg>