<?xml version="1.0" ?><!DOCTYPE svg  PUBLIC '-//W3C//DTD SVG 1.1//EN'  'http://www.w3.org/Graphics/SVG/1.1/DTD/svg11.dtd'><svg enable-background="new 0 0 128 128" id="Слой_1" version="1.1" viewBox="0 0 128 128" xml:space="preserve" xmlns="http://www.w3.org/2000/svg" xmlns:xlink="http://www.w3.org/1999/xlink"><g><path d="M19,121h107V17H21l0-15h-2C9.6,2,2,9.6,2,19v0v85v0C2,113.4,9.6,121,19,121z M6,19c0-6.5,4.8-11.9,11-12.8   v40.3c0,17.5,0,35,0,40.6c-4.4,0.5-8.3,2.7-11,5.9V19L6,19z M6,104c0-7.2,5.8-13,13-13h2l0-70h101v96H19C11.8,117,6,111.2,6,104   L6,104z" fill="#3EBBC4"/><polygon fill="#3EBBC4" points="112,51 78,51 78,49 74,49 74,55 108,55 108,103 78,103 78,67 74,67 74,103 35,103 35,55 58,55    58,48 54,48 54,51 35,51 35,35 74,35 74,37 78,37 78,31 31,31 31,107 112,107  "/></g></svg>